<svg width="24" height="24" viewBox="0 0 24 24" fill="none" xmlns="http://www.w3.org/2000/svg">
<g id="photo-camera-svgrepo-com 1" clip-path="url(#clip0_50_417)">
<g id="Group">
<path id="Vector" d="M22.5 3.75H18.621L16.0605 1.1895C15.7792 0.90825 15.3982 0.75 15 0.75H9C8.60175 0.75 8.22075 0.90825 7.9395 1.1895L5.379 3.75H1.5C0.670875 3.75 0 4.42088 0 5.25V21.75C0 22.5791 0.670875 23.25 1.5 23.25H22.5C23.3291 23.25 24 22.5791 24 21.75V5.25C24 4.42088 23.3291 3.75 22.5 3.75ZM12 18.75C8.6865 18.75 6 16.0635 6 12.75C6 9.4365 8.6865 6.75 12 6.75C15.3135 6.75 18 9.4365 18 12.75C18 16.0635 15.3135 18.75 12 18.75Z" fill="#231F20"/>
<path id="Vector_2" d="M12 15.75C13.6569 15.75 15 14.4069 15 12.75C15 11.0931 13.6569 9.75 12 9.75C10.3431 9.75 9 11.0931 9 12.75C9 14.4069 10.3431 15.75 12 15.75Z" fill="#231F20"/>
</g>
</g>
<defs>
<clipPath id="clip0_50_417">
<rect width="24" height="24" fill="white"/>
</clipPath>
</defs>
</svg>
