<svg width="24" height="24" viewBox="0 0 24 24" fill="none" xmlns="http://www.w3.org/2000/svg">
<path d="M21.7438 7.43819C21.7446 7.31206 21.7204 7.18704 21.6727 7.07028C21.625 6.95352 21.5547 6.84732 21.4659 6.75777L17.4026 2.69444C17.313 2.60562 17.2068 2.53535 17.0901 2.48766C16.9733 2.43996 16.8483 2.41579 16.7222 2.41652C16.596 2.41579 16.471 2.43996 16.3543 2.48766C16.2375 2.53535 16.1313 2.60562 16.0417 2.69444L13.3297 5.40652L2.85508 15.8811C2.76626 15.9707 2.69599 16.0768 2.6483 16.1936C2.60061 16.3104 2.57644 16.4354 2.57716 16.5615V20.6249C2.57716 20.879 2.67813 21.1228 2.85785 21.3025C3.03758 21.4822 3.28133 21.5832 3.5355 21.5832H7.59883C7.73293 21.5905 7.86706 21.5695 7.99253 21.5216C8.11801 21.4738 8.23201 21.4 8.32716 21.3053L18.7442 10.8307L21.4659 8.16652C21.5534 8.07364 21.6247 7.96674 21.6768 7.85027C21.686 7.77388 21.686 7.69666 21.6768 7.62027C21.6812 7.57566 21.6812 7.53071 21.6768 7.4861L21.7438 7.43819ZM7.20591 19.6665H4.49383V16.9544L14.0101 7.43819L16.7222 10.1503L7.20591 19.6665ZM18.0734 8.79902L15.3613 6.08694L16.7222 4.73569L19.4247 7.43819L18.0734 8.79902Z" fill="#0F4229"/>
</svg>
