<svg width="56" height="57" viewBox="0 0 56 57" fill="none" xmlns="http://www.w3.org/2000/svg">
<g clip-path="url(#clip0_6_694)">
<path d="M47.4128 43.4255C46.7558 41.8937 45.4899 40.6646 43.9394 40.0532L34.3963 36.2901C34.1887 36.2082 34.0546 36.0113 34.0546 35.7881V32.8227C36.098 31.2898 37.578 29.2819 38.4615 26.8405C38.7601 26.0155 38.9899 25.1396 39.1518 24.2177C41.2322 24.121 42.895 22.3985 42.895 20.2947C42.895 19.8675 42.8234 19.443 42.6881 19.0404C43.3241 18.6078 43.7427 17.8784 43.7427 17.0529V16.8517C43.7427 15.5273 42.6653 14.4497 41.3407 14.4497H40.7405V12.6342C40.7405 8.33455 38.4103 4.41724 34.6463 2.35735C34.5577 1.08576 33.4956 0.078125 32.2019 0.078125C31.4327 0.078125 30.7454 0.434604 30.2957 0.990585C29.8762 0.945529 29.4517 0.922505 29.0289 0.922505H27.2433C26.7426 0.922505 26.2386 0.954452 25.745 1.01757C25.7142 1.02154 25.6841 1.02738 25.6546 1.03454C25.2048 0.516674 24.5423 0.188286 23.8042 0.188286C22.4938 0.188286 21.4202 1.22192 21.356 2.51675C21.3222 2.53118 21.2888 2.54715 21.2564 2.56643C17.7253 4.6705 15.5317 8.52821 15.5317 12.6341V14.4496H14.7204C13.3959 14.4496 12.3183 15.5272 12.3183 16.8516V17.0528C12.3183 17.9039 12.7637 18.6525 13.4333 19.0793C13.3059 19.4699 13.2416 19.8772 13.2416 20.2947C13.2416 22.3538 14.8346 24.0467 16.8529 24.2086C17.0126 25.1207 17.2383 25.9878 17.5317 26.8051C18.4129 29.2604 19.8954 31.2788 21.9459 32.8185V35.7881C21.9459 36.0112 21.8118 36.2082 21.6042 36.2901L12.0611 40.0532C10.5106 40.6646 9.24463 41.8937 8.58764 43.4256C7.10719 46.878 6.35645 50.5331 6.35645 54.2894C6.35645 55.2757 7.15885 56.0781 8.14512 56.0781H35.8658C36.3222 56.0781 36.692 55.7082 36.692 55.2519C36.692 54.7956 36.3222 54.4257 35.8658 54.4257H28.2777V52.3899H30.0351C30.7798 52.3899 31.3856 51.7842 31.3856 51.0395V49.0079C31.3856 48.2632 30.7798 47.6573 30.0351 47.6573H28.2777V45.3285H32.1565C33.9371 45.3285 35.3857 43.8799 35.3857 42.0992V38.4564L36.8135 39.0194V43.2799C36.8135 44.578 37.3048 45.8125 38.1971 46.7558L39.4469 48.0768C39.7648 48.4128 39.9399 48.8527 39.9399 49.3154V54.4257H39.1707C38.7143 54.4257 38.3445 54.7956 38.3445 55.2519C38.3445 55.7082 38.7143 56.0781 39.1707 56.0781H47.8556C48.8418 56.0781 49.6441 55.2757 49.6441 54.2894C49.644 50.533 48.8934 46.8777 47.4128 43.4255ZM23.5982 33.8704C24.9746 34.5789 26.4885 34.9345 28.003 34.9345C29.5155 34.9345 31.0273 34.5797 32.4021 33.8733V35.7409C32.3877 35.7565 32.3734 35.772 32.36 35.7889L31.9114 36.3542C30.9586 37.5549 29.533 38.2435 28.0001 38.2435C26.4675 38.2435 25.0418 37.5549 24.089 36.3542L23.6331 35.7798C23.622 35.7658 23.61 35.7532 23.5982 35.7401V33.8704ZM39.3667 22.5326C39.448 21.5505 39.4599 20.5235 39.4016 19.4547H41.0825C41.1884 19.7204 41.2426 20.0018 41.2426 20.2946C41.2426 21.4127 40.4312 22.343 39.3667 22.5326ZM39.0882 12.6341V14.4496H34.6532V4.29276C37.4135 6.15205 39.0882 9.25593 39.0882 12.6341ZM31.403 14.4496V2.63958C31.403 2.19905 31.7613 1.84069 32.2019 1.84069C32.6424 1.84069 33.0008 2.19905 33.0008 2.63958V14.4496H31.403ZM27.2433 2.57491H29.0289C29.2694 2.57491 29.5105 2.58351 29.7506 2.60047V2.63958V14.4496H26.2555V2.63958C26.2555 2.63407 26.2552 2.62867 26.2551 2.62316C26.5826 2.59133 26.9137 2.57491 27.2433 2.57491ZM17.1841 12.6341C17.1841 9.40784 18.7618 6.36069 21.3529 4.48091V7.98985C21.3529 8.44614 21.7229 8.81606 22.1791 8.81606C22.6354 8.81606 23.0053 8.44614 23.0053 7.98985V2.63958C23.0053 2.19905 23.3637 1.84069 23.8043 1.84069C24.2448 1.84069 24.6032 2.19905 24.6032 2.63958V14.4496H23.0055V11.2946C23.0055 10.8383 22.6355 10.4684 22.1792 10.4684C21.723 10.4684 21.353 10.8383 21.353 11.2946V14.4496H17.1841V12.6341ZM13.9707 16.8516C13.9707 16.4383 14.3071 16.102 14.7204 16.102H41.3408C41.7541 16.102 42.0904 16.4383 42.0904 16.8516V17.0528C42.0904 17.4661 41.7541 17.8024 41.3408 17.8024H14.7204C14.3071 17.8024 13.9707 17.4661 13.9707 17.0528V16.8516ZM14.894 20.2946C14.894 20.0031 14.9506 19.7215 15.0569 19.4547H16.604C16.5462 20.5132 16.5578 21.5308 16.637 22.5044C15.6387 22.2637 14.894 21.3655 14.894 20.2946ZM18.2597 19.4547H37.7461C38.0885 25.2905 36.245 29.5293 32.2608 32.0541C29.6744 33.6933 26.3316 33.6932 23.7452 32.0541C19.7605 29.5289 17.917 25.2903 18.2597 19.4547ZM8.00874 54.2894C8.00874 50.7583 8.71443 47.3222 10.1062 44.0768C10.5905 42.9474 11.524 42.0411 12.6671 41.5904L17.5387 39.6694V43.2799C17.5387 44.154 17.2079 44.9852 16.6072 45.6203L15.3577 46.9413C14.7483 47.5855 14.4126 48.4286 14.4126 49.3154V54.4257H8.14512C8.06988 54.4257 8.00874 54.3646 8.00874 54.2894ZM29.7332 50.7375H23.3842V49.3097H29.7332V50.7375ZM23.0822 47.6573C22.3375 47.6573 21.7318 48.2632 21.7318 49.0079V51.0395C21.7318 51.7842 22.3375 52.3899 23.0822 52.3899H26.6253V54.4257H16.0649V49.3154C16.0649 48.8528 16.2399 48.4129 16.558 48.0768L17.8075 46.7558C18.6997 45.8127 19.1911 44.5782 19.1911 43.2799C19.1911 43.2799 19.1896 39.0357 19.1886 39.0188L20.619 38.4548V42.0992C20.619 43.8798 22.0677 45.3285 23.8483 45.3285H26.6253V47.6573H23.0822ZM32.1565 43.6761H23.8483C22.9788 43.6761 22.2715 42.9688 22.2715 42.0992V37.8005C22.4844 37.7092 22.677 37.5877 22.8455 37.4418C24.1132 39.0017 25.9866 39.896 28.0002 39.896C30.014 39.896 31.8875 39.0017 33.1552 37.4418C33.3249 37.5887 33.5188 37.7108 33.7334 37.8024V42.0992C33.7333 42.9687 33.0259 43.6761 32.1565 43.6761ZM47.8555 54.4257H41.5923V49.3154C41.5923 48.4286 41.2567 47.5854 40.6473 46.9413L39.3977 45.6203C38.7969 44.9852 38.466 44.154 38.466 43.2799V39.671L43.3334 41.5904C44.4765 42.0411 45.41 42.9474 45.8944 44.0768C47.286 47.3221 47.9917 50.7581 47.9917 54.2894C47.9916 54.3646 47.9305 54.4257 47.8555 54.4257Z" fill="white"/>
</g>
<defs>
<clipPath id="clip0_6_694">
<rect width="56" height="56" fill="white" transform="translate(0 0.078125)"/>
</clipPath>
</defs>
</svg>
