<svg width="56" height="57" viewBox="0 0 56 57" fill="none" xmlns="http://www.w3.org/2000/svg">
<g clip-path="url(#clip0_6_670)">
<path d="M28 22.75C33.2469 22.75 37.5156 18.4813 37.5156 13.2344C37.5156 7.98744 33.2469 3.71875 28 3.71875C22.7531 3.71875 18.4844 7.98744 18.4844 13.2344C18.4844 18.4813 22.7531 22.75 28 22.75ZM28 7C31.4377 7 34.2344 9.79672 34.2344 13.2344C34.2344 16.672 31.4377 19.4688 28 19.4688C24.5623 19.4688 21.7656 16.672 21.7656 13.2344C21.7656 9.79672 24.5623 7 28 7Z" fill="white"/>
<path d="M47.25 22.75C50.567 22.75 53.2656 20.0514 53.2656 16.7344C53.2656 13.4174 50.567 10.7188 47.25 10.7188C43.933 10.7188 41.2344 13.4174 41.2344 16.7344C41.2344 20.0514 43.933 22.75 47.25 22.75ZM47.25 14C48.7577 14 49.9844 15.2266 49.9844 16.7344C49.9844 18.2421 48.7577 19.4688 47.25 19.4688C45.7423 19.4688 44.5156 18.2421 44.5156 16.7344C44.5156 15.2266 45.7423 14 47.25 14Z" fill="white"/>
<path d="M48.5734 26.4688H46.0359C43.0457 26.4688 40.4645 28.2354 39.2883 30.7729C36.8666 28.1293 33.3881 26.4688 29.529 26.4688H26.4712C22.612 26.4688 19.1335 28.1293 16.7118 30.7729C15.5355 28.2354 12.9543 26.4688 9.96406 26.4688H7.42656C3.33156 26.4688 0 29.7802 0 33.8505V45.7953C0 47.5624 1.44309 49 3.21694 49H13.2496C13.4178 50.9578 15.0641 52.5 17.0649 52.5H38.9352C40.9359 52.5 42.5822 50.9578 42.7505 49H52.6685C54.5056 49 56.0001 47.5114 56.0001 45.6816V33.8505C56 29.7802 52.6684 26.4688 48.5734 26.4688ZM3.28125 33.8505C3.28125 31.5895 5.14084 29.75 7.42656 29.75H9.96406C12.2498 29.75 14.1094 31.5895 14.1094 33.8505V34.9739C13.0061 37.8465 13.2344 39.568 13.2344 45.7188H3.28125V33.8505ZM39.4844 48.6696C39.4844 48.9724 39.2381 49.2188 38.9352 49.2188H17.0648C16.7619 49.2188 16.5156 48.9723 16.5156 48.6696V39.7055C16.5156 34.216 20.9816 29.75 26.471 29.75H29.5288C35.0184 29.75 39.4844 34.216 39.4844 39.7054V48.6696ZM52.7188 45.6816C52.7188 45.7381 53.3304 45.7188 42.7656 45.7188C42.7656 39.5225 42.9921 37.8418 41.8906 34.9739V33.8505C41.8906 31.5895 43.7502 29.75 46.0359 29.75H48.5734C50.8592 29.75 52.7188 31.5895 52.7188 33.8505V45.6816Z" fill="white"/>
<path d="M8.75 22.75C12.067 22.75 14.7656 20.0514 14.7656 16.7344C14.7656 13.4174 12.067 10.7188 8.75 10.7188C5.43298 10.7188 2.73438 13.4174 2.73438 16.7344C2.73438 20.0514 5.43298 22.75 8.75 22.75ZM8.75 14C10.2577 14 11.4844 15.2266 11.4844 16.7344C11.4844 18.2421 10.2577 19.4688 8.75 19.4688C7.24227 19.4688 6.01562 18.2421 6.01562 16.7344C6.01562 15.2266 7.24227 14 8.75 14Z" fill="white"/>
</g>
<defs>
<clipPath id="clip0_6_670">
<rect width="56" height="56" fill="white" transform="translate(0 0.109375)"/>
</clipPath>
</defs>
</svg>
