<svg width="56" height="57" viewBox="0 0 56 57" fill="none" xmlns="http://www.w3.org/2000/svg">
<mask id="mask0_6_679" style="mask-type:luminance" maskUnits="userSpaceOnUse" x="0" y="0" width="56" height="57">
<path d="M0 0.0781288H56V56.0781H0V0.0781288Z" fill="white"/>
</mask>
<g mask="url(#mask0_6_679)">
<path d="M44.4062 28.0781C44.4062 37.1391 37.061 44.4844 28 44.4844C18.939 44.4844 11.5938 37.1391 11.5938 28.0781C11.5938 19.0172 18.939 11.6719 28 11.6719C37.061 11.6719 44.4062 19.0172 44.4062 28.0781Z" stroke="white" stroke-width="3" stroke-miterlimit="10" stroke-linecap="round" stroke-linejoin="round"/>
<path d="M36.2031 23.1562L26.3594 33L19.7969 26.4375" stroke="white" stroke-width="3" stroke-miterlimit="10" stroke-linecap="round" stroke-linejoin="round"/>
<path d="M25.8722 2.50215C27.0985 1.45762 28.9015 1.45762 30.1278 2.50215L34.3915 6.2652L41.6069 5.70684C43.213 5.58259 44.6717 6.64232 45.0497 8.20814L46.4963 14.1993L52.8006 17.9729C54.1729 18.8164 54.73 20.5312 54.1156 22.0201L51.625 28.0551L54.1156 34.0901C54.73 35.5791 54.1729 37.2939 52.8006 38.1374L46.4963 41.9111L45.0497 47.9022C44.6717 49.4679 43.213 50.5277 41.6069 50.4035L34.4621 49.8505L30.1278 53.6541C28.9015 54.6986 27.0985 54.6986 25.8722 53.6541L21.5379 49.8505L14.3931 50.4035C12.787 50.5277 11.3283 49.4679 10.9503 47.9022L9.49791 41.8873L3.20425 38.1374C1.83181 37.2939 1.27466 35.5791 1.88923 34.0901L4.3797 28.0551L1.88923 22.0201C1.27466 20.5312 1.83181 18.8164 3.20425 17.9729L8.95847 14.5544L10.9503 8.20814C11.3283 6.64232 12.787 5.58259 14.3931 5.70684L21.6086 6.2652L25.8722 2.50215Z" stroke="white" stroke-width="3" stroke-miterlimit="10" stroke-linecap="round" stroke-linejoin="round"/>
</g>
</svg>
