<svg width="94" height="86" viewBox="0 0 94 86" fill="none" xmlns="http://www.w3.org/2000/svg">
<path d="M76.9091 25.8V17.2H68.3636V8.6H76.9091V0H85.4545V8.6H94V17.2H85.4545V25.8H76.9091ZM8.54546 86C6.19546 86 4.18301 85.1572 2.5081 83.4716C0.833189 81.786 -0.00284123 79.7621 7.2542e-06 77.4V25.8C7.2542e-06 23.435 0.837462 21.4097 2.51237 19.7241C4.18728 18.0385 6.19831 17.1971 8.54546 17.2H22.0046L29.9091 8.6H55.5455V17.2H33.6477L25.85 25.8H8.54546V77.4H76.9091V38.7H85.4545V77.4C85.4545 79.765 84.6171 81.7903 82.9422 83.4759C81.2673 85.1615 79.2562 86.0029 76.9091 86H8.54546ZM42.7273 70.95C48.0682 70.95 52.6087 69.068 56.3487 65.3041C60.0888 61.5402 61.9574 56.9721 61.9545 51.6C61.9545 46.225 60.0845 41.6555 56.3445 37.8916C52.6044 34.1277 48.0653 32.2471 42.7273 32.25C37.3864 32.25 32.8459 34.132 29.1058 37.8959C25.3658 41.6598 23.4972 46.2279 23.5 51.6C23.5 56.975 25.37 61.5445 29.1101 65.3084C32.8502 69.0723 37.3892 70.9529 42.7273 70.95ZM42.7273 62.35C39.7364 62.35 37.2083 61.3108 35.1432 59.2325C33.078 57.1542 32.0455 54.61 32.0455 51.6C32.0455 48.59 33.078 46.0458 35.1432 43.9675C37.2083 41.8892 39.7364 40.85 42.7273 40.85C45.7182 40.85 48.2462 41.8892 50.3114 43.9675C52.3765 46.0458 53.4091 48.59 53.4091 51.6C53.4091 54.61 52.3765 57.1542 50.3114 59.2325C48.2462 61.3108 45.7182 62.35 42.7273 62.35Z" fill="white"/>
</svg>
