<svg width="199" height="39" viewBox="0 0 199 39" fill="none" xmlns="http://www.w3.org/2000/svg">
<path d="M10.72 37.54C10.1227 37.5187 9.58933 37.412 9.12 37.22C8.672 37.028 8.34133 36.804 8.128 36.548C7.936 36.292 7.936 36.0787 8.128 35.908L8.608 35.46C8.8 35.2893 8.97067 35.2467 9.12 35.332C9.26933 35.4387 9.46133 35.5667 9.696 35.716C9.93067 35.8653 10.272 35.94 10.72 35.94C11.0827 35.94 11.3813 35.8333 11.616 35.62C11.872 35.4067 12 35.1187 12 34.756C12 34.4147 11.872 34.1373 11.616 33.924C11.3813 33.732 11.0827 33.636 10.72 33.636C10.4 33.636 10.1333 33.6787 9.92 33.764C9.70667 33.8493 9.51467 33.9027 9.344 33.924C9.17333 33.9667 9.00267 33.9027 8.832 33.732L8.288 33.156C8.18133 33.028 8.14933 32.8787 8.192 32.708C8.256 32.5373 8.33067 32.3667 8.416 32.196L9.056 30.692C7.49867 30.4787 6.19733 29.9987 5.152 29.252C4.128 28.484 3.34933 27.5027 2.816 26.308C2.304 25.092 2.016 23.7053 1.952 22.148C1.93067 21.2733 1.92 20.3347 1.92 19.332C1.92 18.3293 1.93067 17.3693 1.952 16.452C2.016 14.724 2.37867 13.2093 3.04 11.908C3.70133 10.6067 4.672 9.59333 5.952 8.868C7.25333 8.14267 8.88533 7.78 10.848 7.78C12.32 7.78 13.6107 7.98267 14.72 8.388C15.8293 8.79333 16.7467 9.33733 17.472 10.02C18.2187 10.7027 18.784 11.4707 19.168 12.324C19.552 13.156 19.7653 14.02 19.808 14.916C19.8293 15.108 19.7653 15.268 19.616 15.396C19.488 15.524 19.328 15.588 19.136 15.588H17.376C17.184 15.588 17.0133 15.5347 16.864 15.428C16.736 15.3213 16.64 15.1293 16.576 14.852C16.2133 13.188 15.5307 12.0467 14.528 11.428C13.5467 10.8093 12.3093 10.5 10.816 10.5C9.10933 10.5 7.75467 10.9907 6.752 11.972C5.74933 12.932 5.20533 14.4787 5.12 16.612C5.056 18.3613 5.056 20.1533 5.12 21.988C5.20533 24.1213 5.74933 25.6787 6.752 26.66C7.75467 27.62 9.10933 28.1 10.816 28.1C12.3093 28.1 13.5467 27.7907 14.528 27.172C15.5307 26.5533 16.2133 25.412 16.576 23.748C16.64 23.4707 16.736 23.2787 16.864 23.172C17.0133 23.0653 17.184 23.012 17.376 23.012H19.136C19.328 23.012 19.488 23.076 19.616 23.204C19.7653 23.332 19.8293 23.492 19.808 23.684C19.7653 24.58 19.552 25.4547 19.168 26.308C18.784 27.14 18.2187 27.8973 17.472 28.58C16.7467 29.2627 15.8293 29.8067 14.72 30.212C13.6107 30.6173 12.32 30.82 10.848 30.82L10.144 32.292C10.272 32.2067 10.4427 32.1427 10.656 32.1C10.8907 32.0573 11.104 32.036 11.296 32.036C12.0213 32.036 12.608 32.2813 13.056 32.772C13.5253 33.284 13.76 33.9347 13.76 34.724C13.76 35.492 13.504 36.1533 12.992 36.708C12.48 37.284 11.7227 37.5613 10.72 37.54ZM28.3205 30.82C27.2538 30.82 26.2832 30.6067 25.4085 30.18C24.5338 29.7533 23.8298 29.1773 23.2965 28.452C22.7632 27.7267 22.4965 26.9053 22.4965 25.988C22.4965 24.516 23.0938 23.3427 24.2885 22.468C25.4832 21.5933 27.0405 21.0173 28.9605 20.74L33.7285 20.068V19.14C33.7285 18.116 33.4298 17.316 32.8325 16.74C32.2565 16.164 31.3072 15.876 29.9845 15.876C29.0245 15.876 28.2458 16.068 27.6485 16.452C27.0725 16.836 26.6672 17.3267 26.4325 17.924C26.3045 18.244 26.0805 18.404 25.7605 18.404H24.3205C24.0858 18.404 23.9045 18.34 23.7765 18.212C23.6698 18.0627 23.6165 17.892 23.6165 17.7C23.6165 17.38 23.7338 16.9853 23.9685 16.516C24.2245 16.0467 24.6085 15.588 25.1205 15.14C25.6325 14.692 26.2832 14.3187 27.0725 14.02C27.8832 13.7 28.8645 13.54 30.0165 13.54C31.2965 13.54 32.3738 13.7107 33.2485 14.052C34.1232 14.372 34.8058 14.8093 35.2965 15.364C35.8085 15.9187 36.1712 16.548 36.3845 17.252C36.6192 17.956 36.7365 18.6707 36.7365 19.396V29.764C36.7365 29.9773 36.6618 30.1587 36.5125 30.308C36.3845 30.436 36.2138 30.5 36.0005 30.5H34.5285C34.2938 30.5 34.1125 30.436 33.9845 30.308C33.8565 30.1587 33.7925 29.9773 33.7925 29.764V28.388C33.5152 28.772 33.1418 29.156 32.6725 29.54C32.2032 29.9027 31.6165 30.212 30.9125 30.468C30.2085 30.7027 29.3445 30.82 28.3205 30.82ZM28.9925 28.42C29.8672 28.42 30.6672 28.2387 31.3925 27.876C32.1178 27.492 32.6832 26.9053 33.0885 26.116C33.5152 25.3267 33.7285 24.3347 33.7285 23.14V22.244L30.0165 22.788C28.5018 23.0013 27.3605 23.364 26.5925 23.876C25.8245 24.3667 25.4405 24.996 25.4405 25.764C25.4405 26.3613 25.6112 26.8627 25.9525 27.268C26.3152 27.652 26.7632 27.94 27.2965 28.132C27.8512 28.324 28.4165 28.42 28.9925 28.42ZM49.6285 36.58C49.3938 36.58 49.2018 36.5053 49.0525 36.356C48.9032 36.2067 48.8285 36.0147 48.8285 35.78V14.66C48.8285 14.4253 48.9032 14.2333 49.0525 14.084C49.2018 13.9347 49.3938 13.86 49.6285 13.86H52.6685C52.9032 13.86 53.0952 13.9347 53.2445 14.084C53.3938 14.2333 53.4685 14.4253 53.4685 14.66V15.876C53.9805 15.1933 54.6418 14.6387 55.4525 14.212C56.2632 13.764 57.2765 13.54 58.4925 13.54C59.6018 13.54 60.5618 13.7213 61.3725 14.084C62.2045 14.4253 62.8978 14.9267 63.4525 15.588C64.0285 16.228 64.4658 17.0067 64.7645 17.924C65.0845 18.8413 65.2658 19.876 65.3085 21.028C65.3298 21.4333 65.3405 21.8173 65.3405 22.18C65.3405 22.5427 65.3298 22.9373 65.3085 23.364C65.2872 24.452 65.1165 25.4547 64.7965 26.372C64.4978 27.2893 64.0605 28.0787 63.4845 28.74C62.9085 29.4013 62.2045 29.9133 61.3725 30.276C60.5618 30.6387 59.6018 30.82 58.4925 30.82C57.4045 30.82 56.4552 30.628 55.6445 30.244C54.8552 29.8387 54.2045 29.2947 53.6925 28.612V35.78C53.6925 36.0147 53.6178 36.2067 53.4685 36.356C53.3192 36.5053 53.1378 36.58 52.9245 36.58H49.6285ZM57.0525 26.98C57.8632 26.98 58.5032 26.8093 58.9725 26.468C59.4418 26.1053 59.7725 25.636 59.9645 25.06C60.1778 24.484 60.3058 23.8547 60.3485 23.172C60.3912 22.5107 60.3912 21.8493 60.3485 21.188C60.3058 20.5053 60.1778 19.876 59.9645 19.3C59.7725 18.724 59.4418 18.2653 58.9725 17.924C58.5032 17.5613 57.8632 17.38 57.0525 17.38C56.2632 17.38 55.6232 17.5613 55.1325 17.924C54.6418 18.2867 54.2898 18.7453 54.0765 19.3C53.8632 19.8547 53.7352 20.452 53.6925 21.092C53.6712 21.476 53.6605 21.8707 53.6605 22.276C53.6605 22.6813 53.6712 23.0867 53.6925 23.492C53.7138 24.0893 53.8418 24.6547 54.0765 25.188C54.3325 25.7 54.6952 26.1267 55.1645 26.468C55.6552 26.8093 56.2845 26.98 57.0525 26.98ZM76.3508 30.82C74.5801 30.82 73.0974 30.532 71.9028 29.956C70.7081 29.3587 69.7908 28.516 69.1508 27.428C68.5321 26.34 68.1908 25.0707 68.1268 23.62C68.1054 23.1933 68.0948 22.7133 68.0948 22.18C68.0948 21.6253 68.1054 21.1453 68.1268 20.74C68.1908 19.268 68.5534 17.9987 69.2148 16.932C69.8761 15.844 70.8041 15.012 71.9988 14.436C73.1934 13.8387 74.6441 13.54 76.3508 13.54C78.0361 13.54 79.4761 13.8387 80.6708 14.436C81.8654 15.012 82.7934 15.844 83.4548 16.932C84.1161 17.9987 84.4788 19.268 84.5428 20.74C84.5854 21.1453 84.6068 21.6253 84.6068 22.18C84.6068 22.7133 84.5854 23.1933 84.5428 23.62C84.4788 25.0707 84.1268 26.34 83.4868 27.428C82.8681 28.516 81.9614 29.3587 80.7668 29.956C79.5721 30.532 78.1001 30.82 76.3508 30.82ZM76.3508 27.3C77.3961 27.3 78.1854 26.98 78.7188 26.34C79.2521 25.6787 79.5401 24.7187 79.5828 23.46C79.6041 23.14 79.6148 22.7133 79.6148 22.18C79.6148 21.6467 79.6041 21.22 79.5828 20.9C79.5401 19.6627 79.2521 18.7133 78.7188 18.052C78.1854 17.3907 77.3961 17.06 76.3508 17.06C75.3054 17.06 74.5054 17.3907 73.9508 18.052C73.4174 18.7133 73.1294 19.6627 73.0868 20.9C73.0654 21.22 73.0548 21.6467 73.0548 22.18C73.0548 22.7133 73.0654 23.14 73.0868 23.46C73.1294 24.7187 73.4174 25.6787 73.9508 26.34C74.5054 26.98 75.3054 27.3 76.3508 27.3ZM95.8598 30.5C94.5371 30.5 93.4064 30.2867 92.4678 29.86C91.5291 29.412 90.8144 28.7293 90.3238 27.812C89.8544 26.8947 89.6198 25.7427 89.6198 24.356V17.636H87.1238C86.8891 17.636 86.6971 17.5613 86.5478 17.412C86.3984 17.2627 86.3238 17.0707 86.3238 16.836V14.66C86.3238 14.4253 86.3984 14.2333 86.5478 14.084C86.6971 13.9347 86.8891 13.86 87.1238 13.86H89.6198V8.58C89.6198 8.34533 89.6944 8.15333 89.8438 8.004C90.0144 7.85467 90.2064 7.78 90.4198 7.78H93.5558C93.7904 7.78 93.9824 7.85467 94.1318 8.004C94.2811 8.15333 94.3558 8.34533 94.3558 8.58V13.86H98.3558C98.5691 13.86 98.7504 13.9347 98.8998 14.084C99.0491 14.2333 99.1238 14.4253 99.1238 14.66V16.836C99.1238 17.0707 99.0491 17.2627 98.8998 17.412C98.7504 17.5613 98.5691 17.636 98.3558 17.636H94.3558V23.972C94.3558 24.7827 94.4944 25.4227 94.7718 25.892C95.0704 26.34 95.5824 26.564 96.3078 26.564H98.6438C98.8571 26.564 99.0384 26.6387 99.1878 26.788C99.3371 26.9373 99.4118 27.1187 99.4118 27.332V29.7C99.4118 29.9347 99.3371 30.1267 99.1878 30.276C99.0384 30.4253 98.8571 30.5 98.6438 30.5H95.8598ZM107.1 30.82C105.969 30.82 104.956 30.6067 104.06 30.18C103.164 29.732 102.449 29.1347 101.916 28.388C101.382 27.6413 101.116 26.8093 101.116 25.892C101.116 24.3773 101.724 23.1827 102.94 22.308C104.177 21.4333 105.798 20.836 107.804 20.516L111.996 19.908V19.332C111.996 18.5 111.804 17.86 111.42 17.412C111.036 16.964 110.364 16.74 109.404 16.74C108.7 16.74 108.134 16.8787 107.708 17.156C107.281 17.4333 106.95 17.796 106.716 18.244C106.545 18.5213 106.3 18.66 105.98 18.66H102.94C102.705 18.66 102.524 18.596 102.396 18.468C102.268 18.3187 102.214 18.148 102.236 17.956C102.236 17.5933 102.374 17.1667 102.652 16.676C102.929 16.1853 103.356 15.7053 103.932 15.236C104.508 14.7453 105.244 14.34 106.14 14.02C107.036 13.7 108.134 13.54 109.436 13.54C110.78 13.54 111.932 13.7 112.892 14.02C113.852 14.34 114.62 14.788 115.196 15.364C115.772 15.94 116.198 16.612 116.476 17.38C116.753 18.1267 116.892 18.9373 116.892 19.812V29.7C116.892 29.9347 116.817 30.1267 116.668 30.276C116.518 30.4253 116.326 30.5 116.092 30.5H112.956C112.742 30.5 112.561 30.4253 112.412 30.276C112.262 30.1267 112.188 29.9347 112.188 29.7V28.516C111.91 28.9213 111.537 29.3053 111.068 29.668C110.598 30.0093 110.033 30.2867 109.372 30.5C108.731 30.7133 107.974 30.82 107.1 30.82ZM108.38 27.492C109.084 27.492 109.713 27.3427 110.268 27.044C110.822 26.7453 111.26 26.2867 111.58 25.668C111.9 25.0493 112.06 24.2707 112.06 23.332V22.788L109.084 23.268C107.932 23.46 107.089 23.748 106.556 24.132C106.022 24.516 105.756 24.9853 105.756 25.54C105.756 25.9453 105.873 26.2973 106.108 26.596C106.364 26.8947 106.694 27.1187 107.1 27.268C107.505 27.4173 107.932 27.492 108.38 27.492ZM128.574 37.54C126.995 37.54 125.683 37.3267 124.638 36.9C123.593 36.4947 122.761 35.9933 122.142 35.396C121.545 34.82 121.118 34.244 120.862 33.668C120.606 33.092 120.467 32.644 120.446 32.324C120.425 32.0893 120.499 31.8973 120.67 31.748C120.841 31.5987 121.033 31.524 121.246 31.524H124.67C124.862 31.524 125.022 31.5667 125.15 31.652C125.299 31.7587 125.417 31.9293 125.502 32.164C125.609 32.42 125.758 32.6867 125.95 32.964C126.142 33.2627 126.43 33.508 126.814 33.7C127.219 33.892 127.753 33.988 128.414 33.988C129.161 33.988 129.779 33.8813 130.27 33.668C130.761 33.4547 131.123 33.092 131.358 32.58C131.614 32.068 131.742 31.3747 131.742 30.5V28.356C131.23 28.9107 130.579 29.3693 129.79 29.732C129.022 30.0947 128.073 30.276 126.942 30.276C125.833 30.276 124.851 30.1053 123.998 29.764C123.166 29.4013 122.473 28.9 121.918 28.26C121.363 27.5987 120.937 26.8093 120.638 25.892C120.339 24.9747 120.169 23.94 120.126 22.788C120.105 22.212 120.105 21.6467 120.126 21.092C120.169 19.9827 120.339 18.9693 120.638 18.052C120.937 17.1347 121.363 16.3453 121.918 15.684C122.473 15.0013 123.166 14.4787 123.998 14.116C124.851 13.732 125.833 13.54 126.942 13.54C128.115 13.54 129.118 13.764 129.95 14.212C130.782 14.66 131.465 15.2147 131.998 15.876V14.66C131.998 14.4467 132.073 14.2653 132.222 14.116C132.371 13.9453 132.553 13.86 132.766 13.86H135.902C136.115 13.86 136.297 13.9453 136.446 14.116C136.617 14.2653 136.702 14.4467 136.702 14.66L136.734 30.052C136.734 31.652 136.425 33.0067 135.806 34.116C135.187 35.2253 134.27 36.068 133.054 36.644C131.859 37.2413 130.366 37.54 128.574 37.54ZM128.414 26.532C129.182 26.532 129.801 26.3613 130.27 26.02C130.761 25.6573 131.123 25.2093 131.358 24.676C131.593 24.1213 131.721 23.5453 131.742 22.948C131.763 22.7133 131.774 22.3827 131.774 21.956C131.774 21.508 131.763 21.1667 131.742 20.932C131.721 20.3347 131.593 19.7693 131.358 19.236C131.123 18.6813 130.761 18.2333 130.27 17.892C129.801 17.5507 129.182 17.38 128.414 17.38C127.603 17.38 126.963 17.5613 126.494 17.924C126.025 18.2653 125.683 18.724 125.47 19.3C125.257 19.876 125.129 20.5053 125.086 21.188C125.065 21.7 125.065 22.2013 125.086 22.692C125.129 23.396 125.257 24.036 125.47 24.612C125.683 25.188 126.025 25.6573 126.494 26.02C126.963 26.3613 127.603 26.532 128.414 26.532ZM148.19 30.82C145.737 30.82 143.785 30.1373 142.334 28.772C140.905 27.4067 140.147 25.4227 140.062 22.82C140.062 22.6493 140.062 22.4253 140.062 22.148C140.062 21.8493 140.062 21.6147 140.062 21.444C140.147 19.8013 140.521 18.3933 141.182 17.22C141.843 16.0253 142.771 15.1187 143.966 14.5C145.161 13.86 146.558 13.54 148.158 13.54C149.95 13.54 151.443 13.9133 152.638 14.66C153.854 15.3853 154.761 16.388 155.358 17.668C155.977 18.9267 156.286 20.3773 156.286 22.02V22.756C156.286 22.9693 156.201 23.1507 156.03 23.3C155.881 23.4493 155.699 23.524 155.486 23.524H145.022C145.022 23.5453 145.022 23.588 145.022 23.652C145.022 23.6947 145.022 23.7373 145.022 23.78C145.043 24.4627 145.171 25.092 145.406 25.668C145.662 26.2227 146.014 26.6707 146.462 27.012C146.931 27.3533 147.486 27.524 148.126 27.524C148.659 27.524 149.097 27.4493 149.438 27.3C149.779 27.1507 150.057 26.9693 150.27 26.756C150.505 26.5427 150.675 26.3613 150.782 26.212C150.974 25.9987 151.123 25.8707 151.23 25.828C151.358 25.764 151.55 25.732 151.806 25.732H155.134C155.347 25.732 155.518 25.796 155.646 25.924C155.795 26.0307 155.859 26.1907 155.838 26.404C155.817 26.7453 155.635 27.172 155.294 27.684C154.974 28.1747 154.494 28.6653 153.854 29.156C153.214 29.6253 152.414 30.02 151.454 30.34C150.515 30.66 149.427 30.82 148.19 30.82ZM145.022 20.612H151.294V20.548C151.294 19.78 151.166 19.1187 150.91 18.564C150.675 17.988 150.323 17.54 149.854 17.22C149.385 16.9 148.819 16.74 148.158 16.74C147.497 16.74 146.931 16.9 146.462 17.22C145.993 17.54 145.63 17.988 145.374 18.564C145.139 19.1187 145.022 19.78 145.022 20.548V20.612Z" fill="#0F4229"/>
<g clip-path="url(#clip0_1_65)">
<path d="M186.937 1.5C186.937 1.5 190.206 9.49662 176.197 14.8679C168.585 17.7857 162.738 25.2643 169.719 36.8169C170.297 31.6531 172.776 20.2676 183.436 17.6695C183.436 17.6695 173.514 21.3793 172.638 38.172C177.736 38.8877 189.692 39.3687 193.242 28.9931C197.929 15.2847 186.937 1.5 186.937 1.5Z" fill="#0F4229"/>
<path d="M172.643 38.1021C183.465 33.7829 191.34 23.6647 192.426 11.5859C190.214 5.61794 186.937 1.5 186.937 1.5C186.937 1.5 190.206 9.49662 176.197 14.8679C168.585 17.7857 162.738 25.2643 169.719 36.8169C170.297 31.6531 172.776 20.2676 183.436 17.6695C183.435 17.6695 173.543 21.3701 172.643 38.1021Z" fill="#135334"/>
<path d="M168.639 15.1345C169.197 15.1345 169.65 14.6815 169.65 14.1228C169.65 13.564 169.197 13.111 168.639 13.111C168.08 13.111 167.627 13.564 167.627 14.1228C167.627 14.6815 168.08 15.1345 168.639 15.1345Z" fill="#0F4229"/>
<path d="M171.818 13.8337C172.217 13.8337 172.541 13.5101 172.541 13.111C172.541 12.7119 172.217 12.3884 171.818 12.3884C171.419 12.3884 171.096 12.7119 171.096 13.111C171.096 13.5101 171.419 13.8337 171.818 13.8337Z" fill="#135334"/>
<path d="M171.168 8.05242C172.166 8.05242 172.975 7.24358 172.975 6.24581C172.975 5.24805 172.166 4.43921 171.168 4.43921C170.17 4.43921 169.361 5.24805 169.361 6.24581C169.361 7.24358 170.17 8.05242 171.168 8.05242Z" fill="#135334"/>
<path d="M176.732 10.9431C177.052 10.9431 177.311 10.6842 177.311 10.3649C177.311 10.0456 177.052 9.7868 176.732 9.7868C176.413 9.7868 176.154 10.0456 176.154 10.3649C176.154 10.6842 176.413 10.9431 176.732 10.9431Z" fill="#135334"/>
<path d="M181.574 8.77505C182.492 8.77505 183.236 8.03091 183.236 7.11296C183.236 6.19501 182.492 5.45087 181.574 5.45087C180.656 5.45087 179.912 6.19501 179.912 7.11296C179.912 8.03091 180.656 8.77505 181.574 8.77505Z" fill="#135334"/>
</g>
<defs>
<clipPath id="clip0_1_65">
<rect width="37" height="37" fill="white" transform="translate(162 1.5)"/>
</clipPath>
</defs>
</svg>
