<svg width="193" height="46" viewBox="0 0 193 46" fill="none" xmlns="http://www.w3.org/2000/svg">
<path d="M4.16 22.8C4.16 24.528 4.544 26.0533 5.312 27.376C6.10133 28.6987 7.12533 29.7333 8.384 30.48C9.64267 31.2267 11.008 31.6 12.48 31.6C13.5467 31.6 14.5173 31.4613 15.392 31.184C16.288 30.9067 17.0987 30.5227 17.824 30.032C18.5493 29.52 19.168 28.9333 19.68 28.272V31.856C18.7413 32.688 17.7173 33.3067 16.608 33.712C15.4987 34.1173 14.1227 34.32 12.48 34.32C10.9227 34.32 9.46133 34.0427 8.096 33.488C6.752 32.912 5.568 32.112 4.544 31.088C3.52 30.0427 2.72 28.816 2.144 27.408C1.568 26 1.28 24.464 1.28 22.8C1.28 21.136 1.568 19.6 2.144 18.192C2.72 16.784 3.52 15.568 4.544 14.544C5.568 13.4987 6.752 12.6987 8.096 12.144C9.46133 11.568 10.9227 11.28 12.48 11.28C14.1227 11.28 15.4987 11.4827 16.608 11.888C17.7173 12.2933 18.7413 12.912 19.68 13.744V17.328C19.168 16.6667 18.5493 16.0907 17.824 15.6C17.0987 15.088 16.288 14.6933 15.392 14.416C14.5173 14.1387 13.5467 14 12.48 14C11.008 14 9.64267 14.3733 8.384 15.12C7.12533 15.8667 6.10133 16.9013 5.312 18.224C4.544 19.5253 4.16 21.0507 4.16 22.8ZM12.16 32.112H14.08L12.064 35.696C12.1067 35.696 12.1493 35.696 12.192 35.696C12.256 35.696 12.3093 35.696 12.352 35.696C12.7147 35.696 13.0667 35.7813 13.408 35.952C13.7707 36.144 14.0693 36.4107 14.304 36.752C14.5387 37.0933 14.656 37.5307 14.656 38.064C14.656 38.704 14.496 39.248 14.176 39.696C13.856 40.144 13.44 40.4853 12.928 40.72C12.416 40.9547 11.8613 41.072 11.264 41.072C10.6667 41.072 10.144 40.976 9.696 40.784C9.26933 40.6133 8.832 40.304 8.384 39.856L9.472 38.576C9.77067 38.832 10.0373 39.024 10.272 39.152C10.528 39.28 10.8587 39.344 11.264 39.344C11.8187 39.344 12.224 39.2267 12.48 38.992C12.736 38.7573 12.864 38.448 12.864 38.064C12.864 37.68 12.736 37.392 12.48 37.2C12.224 37.008 11.8187 36.912 11.264 36.912C11.1147 36.912 10.848 36.944 10.464 37.008C10.1013 37.0933 9.74933 37.2533 9.408 37.488L12.16 32.112ZM25.4583 29.456C25.4583 30.0107 25.5863 30.4907 25.8423 30.896C26.1196 31.3013 26.4929 31.6107 26.9623 31.824C27.4529 32.016 28.0076 32.112 28.6263 32.112C29.4156 32.112 30.1196 31.952 30.7383 31.632C31.3783 31.312 31.8796 30.864 32.2423 30.288C32.6263 29.6907 32.8183 29.008 32.8183 28.24L33.3303 30.16C33.3303 31.0987 33.0423 31.8773 32.4663 32.496C31.9116 33.1147 31.2183 33.5733 30.3863 33.872C29.5756 34.1707 28.7649 34.32 27.9543 34.32C27.0583 34.32 26.2156 34.1387 25.4263 33.776C24.6583 33.392 24.0396 32.848 23.5703 32.144C23.1009 31.44 22.8663 30.5867 22.8663 29.584C22.8663 28.1547 23.3676 27.0133 24.3703 26.16C25.3943 25.2853 26.8129 24.848 28.6263 24.848C29.6929 24.848 30.5783 24.976 31.2823 25.232C32.0076 25.4667 32.5836 25.744 33.0103 26.064C33.4369 26.3627 33.7249 26.608 33.8743 26.8V28.304C33.1276 27.792 32.3596 27.4293 31.5703 27.216C30.7809 26.9813 29.9383 26.864 29.0423 26.864C28.2103 26.864 27.5276 26.9707 26.9943 27.184C26.4823 27.3973 26.0983 27.696 25.8423 28.08C25.5863 28.464 25.4583 28.9227 25.4583 29.456ZM25.0743 22.672L23.8263 20.784C24.3809 20.3787 25.1383 19.9733 26.0983 19.568C27.0796 19.1627 28.2529 18.96 29.6183 18.96C30.7703 18.96 31.7729 19.1413 32.6263 19.504C33.5009 19.8453 34.1729 20.3467 34.6423 21.008C35.1329 21.6693 35.3783 22.48 35.3783 23.44V34H32.8183V23.792C32.8183 23.28 32.7329 22.864 32.5623 22.544C32.3916 22.2027 32.1463 21.936 31.8263 21.744C31.5276 21.552 31.1756 21.4133 30.7703 21.328C30.3649 21.2427 29.9383 21.2 29.4903 21.2C28.7649 21.2 28.1036 21.2853 27.5063 21.456C26.9303 21.6267 26.4396 21.8293 26.0343 22.064C25.6289 22.2987 25.3089 22.5013 25.0743 22.672ZM53.0183 41.04H48.8583V19.28H53.0183V41.04ZM65.1143 26.64C65.1143 28.304 64.7836 29.7227 64.1223 30.896C63.4609 32.0693 62.5863 32.9547 61.4983 33.552C60.4316 34.1493 59.2796 34.448 58.0423 34.448C56.7836 34.448 55.6849 34.128 54.7463 33.488C53.8289 32.848 53.1143 31.9413 52.6023 30.768C52.1116 29.5947 51.8663 28.2187 51.8663 26.64C51.8663 25.04 52.1116 23.664 52.6023 22.512C53.1143 21.3387 53.8289 20.432 54.7463 19.792C55.6849 19.152 56.7836 18.832 58.0423 18.832C59.2796 18.832 60.4316 19.1307 61.4983 19.728C62.5863 20.3253 63.4609 21.2107 64.1223 22.384C64.7836 23.536 65.1143 24.9547 65.1143 26.64ZM60.8263 26.64C60.8263 25.7653 60.6449 25.0187 60.2823 24.4C59.9196 23.7813 59.4289 23.312 58.8103 22.992C58.2129 22.672 57.5516 22.512 56.8263 22.512C56.2076 22.512 55.5996 22.672 55.0023 22.992C54.4263 23.2907 53.9463 23.7493 53.5623 24.368C53.1996 24.9867 53.0183 25.744 53.0183 26.64C53.0183 27.536 53.1996 28.2933 53.5623 28.912C53.9463 29.5307 54.4263 30 55.0023 30.32C55.5996 30.6187 56.2076 30.768 56.8263 30.768C57.5516 30.768 58.2129 30.608 58.8103 30.288C59.4289 29.968 59.9196 29.4987 60.2823 28.88C60.6449 28.2613 60.8263 27.5147 60.8263 26.64ZM67.2122 26.64C67.2122 25.104 67.5642 23.76 68.2682 22.608C68.9936 21.456 69.9643 20.56 71.1803 19.92C72.4176 19.28 73.8149 18.96 75.3723 18.96C76.9296 18.96 78.3163 19.28 79.5323 19.92C80.7696 20.56 81.7403 21.456 82.4443 22.608C83.1696 23.76 83.5323 25.104 83.5323 26.64C83.5323 28.1547 83.1696 29.4987 82.4443 30.672C81.7403 31.824 80.7696 32.72 79.5323 33.36C78.3163 34 76.9296 34.32 75.3723 34.32C73.8149 34.32 72.4176 34 71.1803 33.36C69.9643 32.72 68.9936 31.824 68.2682 30.672C67.5642 29.4987 67.2122 28.1547 67.2122 26.64ZM71.4363 26.64C71.4363 27.472 71.6069 28.208 71.9483 28.848C72.3109 29.4667 72.7909 29.9573 73.3883 30.32C73.9856 30.6613 74.6469 30.832 75.3723 30.832C76.0976 30.832 76.7589 30.6613 77.3563 30.32C77.9536 29.9573 78.4229 29.4667 78.7643 28.848C79.1269 28.208 79.3083 27.472 79.3083 26.64C79.3083 25.808 79.1269 25.072 78.7643 24.432C78.4229 23.792 77.9536 23.3013 77.3563 22.96C76.7589 22.6187 76.0976 22.448 75.3723 22.448C74.6469 22.448 73.9856 22.6187 73.3883 22.96C72.7909 23.3013 72.3109 23.792 71.9483 24.432C71.6069 25.072 71.4363 25.808 71.4363 26.64ZM84.7538 19.28H93.8418V22.768H84.7538V19.28ZM87.2818 14.16H91.2818V34H87.2818V14.16ZM98.992 29.424C98.992 29.8507 99.0987 30.224 99.312 30.544C99.5253 30.8427 99.8133 31.0773 100.176 31.248C100.56 31.3973 100.976 31.472 101.424 31.472C102.064 31.472 102.64 31.344 103.152 31.088C103.664 30.8107 104.08 30.4267 104.4 29.936C104.72 29.424 104.88 28.816 104.88 28.112L105.392 30.032C105.392 30.9707 105.125 31.76 104.592 32.4C104.08 33.04 103.408 33.52 102.576 33.84C101.765 34.16 100.912 34.32 100.016 34.32C99.0987 34.32 98.2453 34.1387 97.456 33.776C96.6667 33.4133 96.0267 32.8907 95.536 32.208C95.0667 31.504 94.832 30.6507 94.832 29.648C94.832 28.2187 95.3333 27.088 96.336 26.256C97.3387 25.424 98.7573 25.008 100.592 25.008C101.531 25.008 102.352 25.104 103.056 25.296C103.781 25.488 104.389 25.7227 104.88 26C105.371 26.2773 105.723 26.544 105.936 26.8V28.72C105.36 28.2933 104.709 27.9733 103.984 27.76C103.28 27.5467 102.533 27.44 101.744 27.44C101.104 27.44 100.581 27.5253 100.176 27.696C99.7707 27.8453 99.472 28.0693 99.28 28.368C99.088 28.6453 98.992 28.9973 98.992 29.424ZM97.392 23.44L95.856 20.624C96.624 20.2187 97.5627 19.8347 98.672 19.472C99.7813 19.088 101.019 18.896 102.384 18.896C103.643 18.896 104.763 19.0773 105.744 19.44C106.725 19.8027 107.493 20.336 108.048 21.04C108.603 21.7227 108.88 22.5653 108.88 23.568V34H104.88V24.432C104.88 24.0267 104.816 23.6853 104.688 23.408C104.56 23.1093 104.357 22.864 104.08 22.672C103.824 22.48 103.515 22.3413 103.152 22.256C102.789 22.1707 102.384 22.128 101.936 22.128C101.253 22.128 100.603 22.2027 99.984 22.352C99.3653 22.5013 98.832 22.6827 98.384 22.896C97.936 23.1093 97.6053 23.2907 97.392 23.44ZM112.032 35.024H116.096C116.117 35.664 116.288 36.208 116.608 36.656C116.928 37.1253 117.365 37.488 117.92 37.744C118.474 38 119.125 38.128 119.872 38.128C120.554 38.128 121.194 37.968 121.792 37.648C122.41 37.328 122.901 36.8373 123.264 36.176C123.648 35.5147 123.84 34.6827 123.84 33.68V19.28H127.84V33.68C127.84 35.4933 127.477 36.9867 126.752 38.16C126.048 39.3333 125.098 40.1867 123.904 40.72C122.709 41.2747 121.408 41.552 120 41.552C118.293 41.552 116.864 41.2747 115.712 40.72C114.56 40.1867 113.674 39.4187 113.056 38.416C112.458 37.4347 112.117 36.304 112.032 35.024ZM111.743 26.512C111.743 24.8693 112.074 23.4933 112.736 22.384C113.397 21.2533 114.272 20.4 115.36 19.824C116.448 19.248 117.6 18.96 118.816 18.96C120.053 18.96 121.141 19.2587 122.08 19.856C123.04 20.4533 123.786 21.3173 124.32 22.448C124.874 23.5573 125.152 24.912 125.152 26.512C125.152 28.0907 124.874 29.4453 124.32 30.576C123.786 31.7067 123.04 32.5707 122.08 33.168C121.141 33.744 120.053 34.032 118.816 34.032C117.6 34.032 116.448 33.744 115.36 33.168C114.272 32.592 113.397 31.7493 112.736 30.64C112.074 29.5093 111.743 28.1333 111.743 26.512ZM116.032 26.512C116.032 27.3867 116.213 28.1333 116.576 28.752C116.938 29.3493 117.429 29.808 118.048 30.128C118.666 30.448 119.328 30.608 120.032 30.608C120.65 30.608 121.248 30.4587 121.824 30.16C122.421 29.84 122.901 29.3813 123.264 28.784C123.648 28.1653 123.84 27.408 123.84 26.512C123.84 25.8293 123.733 25.232 123.52 24.72C123.306 24.208 123.008 23.7813 122.624 23.44C122.261 23.0987 121.856 22.8427 121.408 22.672C120.96 22.48 120.501 22.384 120.032 22.384C119.328 22.384 118.666 22.544 118.048 22.864C117.429 23.184 116.938 23.6533 116.576 24.272C116.213 24.8693 116.032 25.616 116.032 26.512ZM138.805 34.32C137.205 34.32 135.807 34 134.613 33.36C133.418 32.72 132.49 31.8347 131.829 30.704C131.189 29.552 130.868 28.1973 130.868 26.64C130.868 25.0613 131.189 23.7067 131.829 22.576C132.49 21.424 133.418 20.5387 134.613 19.92C135.807 19.28 137.215 18.96 138.837 18.96C140.458 18.96 141.834 19.2587 142.965 19.856C144.117 20.432 144.991 21.2853 145.589 22.416C146.186 23.5253 146.485 24.8693 146.485 26.448C146.485 26.64 146.474 26.8427 146.453 27.056C146.453 27.2693 146.442 27.44 146.421 27.568H133.237V25.008H142.805L141.685 26.48C141.77 26.352 141.845 26.1813 141.909 25.968C141.994 25.7333 142.037 25.5413 142.037 25.392C142.037 24.6667 141.898 24.048 141.621 23.536C141.365 23.024 140.991 22.6187 140.501 22.32C140.01 22.0213 139.434 21.872 138.773 21.872C137.962 21.872 137.279 22.0533 136.725 22.416C136.191 22.7573 135.775 23.28 135.477 23.984C135.199 24.6667 135.05 25.52 135.029 26.544C135.029 27.5253 135.167 28.3573 135.445 29.04C135.743 29.7227 136.181 30.2453 136.757 30.608C137.333 30.9707 138.026 31.152 138.837 31.152C139.754 31.152 140.533 30.9813 141.173 30.64C141.834 30.2773 142.378 29.744 142.805 29.04L146.421 30.16C145.653 31.5467 144.629 32.592 143.349 33.296C142.09 33.9787 140.575 34.32 138.805 34.32Z" fill="white"/>
<g clip-path="url(#clip0_160_247)">
<path d="M163.66 30.2039C164.588 21.8481 169.895 14.9417 177.085 11.6145C175.394 8.85682 173.099 6.61622 170.447 5C160.512 9.736 155.825 21.4341 159.961 31.8043C160.977 34.3528 162.445 36.5827 164.224 38.4618C163.548 35.7794 163.351 32.9857 163.66 30.2039Z" fill="white"/>
<path d="M187.759 11.739C176.765 11.2409 167.123 19.3553 165.89 30.4517C165.441 34.4931 166.171 38.3928 167.798 41.813C167.952 41.8338 168.104 41.8585 168.257 41.8755C179.273 43.0992 189.194 35.1618 190.418 24.147C190.916 19.658 189.893 15.3506 187.759 11.739ZM177.026 29.9518C173.516 35.3875 170.253 39.5236 169.737 39.1912C169.223 38.8581 171.651 34.1828 175.163 28.7477C178.673 23.312 181.937 19.1757 182.452 19.5082C182.968 19.8414 180.538 24.5167 177.026 29.9518Z" fill="white"/>
</g>
<defs>
<clipPath id="clip0_160_247">
<rect width="37" height="37" fill="white" transform="translate(156 5)"/>
</clipPath>
</defs>
</svg>
